<svg xmlns="http://www.w3.org/2000/svg" width="3838" height="4683" viewBox="0 0 3838 4683">
  <defs>
    <style>
      .cls-1 {
        fill: #eaefff;
      }

      .cls-1, .cls-2 {
        fill-rule: evenodd;
      }

      .cls-2 {
        fill: #dce4ff;
        stroke: #eaefff;
        stroke-linejoin: round;
        stroke-width: 84px;
      }
    </style>
  </defs>
  <path class="cls-1" d="M43.033,3309.26c-6.039,0-15.092-9.6-15.092-15.09s9.053-15.09,15.092-15.09,15.092,9.6,15.092,15.09S49.072,3309.26,43.033,3309.26ZM29.039,3531.28c0-6.04,9.329-15.1,15.092-15.1s15.09,9.06,15.09,15.1-9.329,15.09-15.09,15.09S29.039,3537.31,29.039,3531.28Zm42.8-192.92c-6.031,0-15.092-9.33-15.092-15.1s9.061-15.09,15.092-15.09,15.368,9.33,15.368,15.09S77.881,3338.36,71.843,3338.36ZM57.027,3503.29c0-6.04,9.331-15.09,15.092-15.09s15.092,9.05,15.092,15.09-9.331,15.09-15.092,15.09S57.027,3509.32,57.027,3503.29ZM118.5,3354.55c0-26.35,17.01-44.73,44.178-44.73s43.09,18.66,43.09,44.73h0.543c0-2.2,7.413-16.75,16.2-16.75,6.037,0,15.644,9.89,15.644,15.65,0,9.05-14.548,16.19-16.742,16.47v0.54c26.339,0,45.007,15.64,45.007,42.81s-18.668,44.19-45.007,44.19V3458c1.374,0,16.742,6.86,16.742,16.2,0,5.49-7.413,14.82-14.824,14.82-9.053,0-16.189-15.37-16.189-16.75h-0.554c0,26.35-16.74,45.01-43.909,45.01-27.436,0-43.08-18.66-43.08-45.01h-0.554c-0.268,2.2-7.4,16.75-16.188,16.75-6.04,0-15.912-9.89-15.912-15.65,0-8.78,14.814-16.19,17.009-16.19v-0.55c-26.349,0-45.008-15.91-45.008-43.08s18.392-44.19,44.73-44.19v-0.54c-1.1,0-16.464-6.86-16.464-16.19,0-7.41,9.883-14.55,14.547-14.55,9.331,0,16.466,15.37,16.19,16.47H118.5Zm22.227,36.77c-2.748,2.74-5.485,5.49-9.607,5.49-6.581,0-12.076-6.59-15.09-16.19a8.717,8.717,0,0,0-3.845-.55c-7.412,0-21.13,7.41-21.13,15.92,0,5.76,5.218,12.34,15.644,17.56-10.426,5.22-15.644,12.34-15.644,18.38,0,8.79,12.9,14.83,20.31,14.83a12.789,12.789,0,0,0,4.665-.83c2.47-9.06,8.785-16.19,15.09-16.19,6.04,0,15.092,9.33,15.092,15.09,0,6.59-7.135,12.63-16.188,15.37a11.424,11.424,0,0,0-.821,4.39c0,7.41,6.039,20.31,14.816,20.31,6.037,0,13.174-5.21,18.659-15.36,5.218,10.15,11.8,15.36,17.571,15.36,8.233,0,15.912-13.72,15.912-21.13a8.838,8.838,0,0,0-.82-3.84c-9.607-3.02-15.921-8.23-15.921-14.82,0-4.12,2.746-7.14,5.218-9.61,2.746-2.47,5.485-5.21,9.6-5.21,6.583,0,11.8,6.31,14.816,15.91a9.862,9.862,0,0,0,4.12.83c7.135,0,20.853-7.69,20.853-16.2,0-5.48-4.939-12.06-15.368-17.56,10.429-5.21,15.368-12.34,15.368-18.38,0-8.79-12.9-14.82-20.031-14.82a12.792,12.792,0,0,0-4.666.82c-2.47,9.06-8.785,16.19-15.368,16.19-5.761,0-15.092-9.05-15.092-15.09,0-6.31,7.135-12.63,16.466-15.1a12.833,12.833,0,0,0,.82-4.66c0-7.41-6.038-20.31-15.091-20.31-6.039,0-12.9,5.22-18.392,15.64-5.209-10.42-11.8-15.64-17.562-15.64-8.233,0-15.913,13.72-15.913,21.14a16.416,16.416,0,0,0,.545,3.83c9.605,3.03,16.2,8.23,16.2,14.83,0,4.11-2.748,7.13-5.494,9.88Zm41.985,22.5c0,7.68-12.346,19.76-20.034,19.76s-20.033-12.08-20.033-19.76c0-7.96,12.353-20.03,20.033-20.03S182.712,3405.86,182.712,3413.82Zm68.884-73.55c-6.039,0-15.092-9.32-15.092-15.09s9.053-15.09,15.092-15.09,15.092,9.33,15.092,15.09S257.634,3340.27,251.6,3340.27ZM236.5,3503.01c0-6.04,9.329-15.37,15.092-15.37s15.092,9.33,15.092,15.37-9.331,15.09-15.092,15.09S236.5,3509.05,236.5,3503.01Zm44.455-192.1c-6.04,0-15.369-9.6-15.369-15.09s9.329-15.1,15.369-15.1c5.761,0,15.1,9.34,15.1,15.1S286.72,3310.91,280.959,3310.91ZM265.59,3531.83c0-6.04,9.329-15.09,15.1-15.09s15.09,9.05,15.09,15.09-9.329,15.09-15.09,15.09S265.59,3537.87,265.59,3531.83Z"/>
  <path id="Shape_2_copy_2" data-name="Shape 2 copy 2" class="cls-1" d="M1465.61,1413.16c-2.89.5-8-3.31-8.46-5.91s3.08-7.91,5.97-8.41,8,3.3,8.45,5.9S1468.49,1412.66,1465.61,1413.16Zm11.64,106.52c-0.5-2.87,3.21-7.94,5.97-8.42s7.95,3.04,8.45,5.91-3.21,7.94-5.96,8.42S1477.75,1522.54,1477.25,1519.68Zm4.52-95.11c-2.88.5-7.98-3.17-8.45-5.91s3.08-7.92,5.96-8.42,8.11,3.15,8.59,5.89S1484.66,1424.07,1481.77,1424.57Zm6.54,79.5c-0.5-2.87,3.21-7.94,5.96-8.42s7.96,3.05,8.46,5.91-3.21,7.94-5.96,8.42S1488.81,1506.94,1488.31,1504.07Zm17.09-75.69c-2.18-12.51,4.43-22.64,17.4-24.9s22.13,5.27,24.28,17.64l0.26-.04c-0.18-1.04,2.16-8.56,6.36-9.29,2.88-.5,8.28,3.39,8.76,6.12,0.75,4.3-5.61,8.89-6.64,9.21l0.05,0.25c12.58-2.18,22.79,3.69,25.03,16.58s-5.27,22.52-17.85,24.71l0.05,0.26c0.65-.12,8.56,1.86,9.33,6.29,0.45,2.61-2.32,7.65-5.86,8.27-4.32.75-9-5.95-9.11-6.6l-0.27.04c2.18,12.51-4.28,22.75-17.26,25.01-13.1,2.28-22.12-5.27-24.29-17.78l-0.27.05c0.06,1.06-2.15,8.56-6.35,9.29-2.88.5-8.41-3.37-8.89-6.1-0.72-4.17,5.74-8.92,6.79-9.1l-0.05-.26c-12.58,2.19-22.81-3.81-25.05-16.71s5.14-22.49,17.72-24.68l-0.05-.26c-0.52.09-8.43-1.89-9.2-6.31-0.61-3.52,3.52-7.73,5.75-8.12,4.46-.77,9.13,5.93,9.09,6.47Zm13.65,15.6c-1.09,1.53-2.17,3.06-4.14,3.4-3.14.55-6.31-2.12-8.54-6.43a4.3,4.3,0,0,0-1.88.06c-3.54.62-9.49,5.27-8.78,9.31,0.47,2.74,3.51,5.43,8.92,7.04-4.55,3.34-6.45,7.15-5.96,10.02,0.73,4.17,7.39,5.96,10.93,5.35a6.382,6.382,0,0,0,2.16-.78c0.43-4.51,2.86-8.42,5.87-8.94,2.89-.5,7.98,3.17,8.46,5.91,0.54,3.12-2.37,6.58-6.47,8.63a5.785,5.785,0,0,0-.03,2.16c0.61,3.51,4.56,9.13,8.76,8.4,2.88-.5,5.86-3.56,7.64-8.84,3.33,4.39,6.91,6.31,9.66,5.83,3.94-.68,6.47-7.83,5.86-11.35a4.149,4.149,0,0,0-.71-1.75c-4.84-.64-8.28-2.58-8.83-5.71-0.34-1.95.72-3.62,1.7-4.99,1.11-1.4,2.19-2.93,4.16-3.27,3.14-.55,6.16,2.01,8.39,6.32a5.147,5.147,0,0,0,2.04.05c3.4-.6,9.32-5.39,8.62-9.42-0.45-2.61-3.36-5.32-8.79-7.06,4.55-3.34,6.32-7.14,5.82-10-0.72-4.17-7.38-5.96-10.79-5.37a6.177,6.177,0,0,0-2.16.78c-0.43,4.5-2.86,8.41-6,8.96-2.76.48-7.96-3.04-8.46-5.91-0.52-2.99,2.37-6.58,6.62-8.53a6.229,6.229,0,0,0,.01-2.28c-0.62-3.52-4.56-9.14-8.89-8.38-2.88.5-5.73,3.54-7.49,8.95-3.35-4.52-6.93-6.44-9.68-5.97-3.94.69-6.47,7.84-5.86,11.35a7.59,7.59,0,0,0,.58,1.78c4.84,0.64,8.41,2.56,8.96,5.69,0.34,1.95-.73,3.61-1.81,5.14Zm21.91,7.19c0.64,3.64-4.26,10.4-7.94,11.04s-10.56-4.07-11.2-7.71c-0.65-3.78,4.25-10.53,7.92-11.17S1540.3,1447.39,1540.96,1451.17Zm26.83-40.63c-2.88.5-7.98-3.17-8.45-5.9s3.08-7.92,5.96-8.42,7.98,3.17,8.46,5.91S1570.68,1410.04,1567.79,1410.54Zm6.23,78.48c-0.5-2.86,3.19-8.07,5.94-8.55s7.98,3.18,8.48,6.04-3.21,7.94-5.96,8.42S1574.52,1491.89,1574.02,1489.02Zm5.37-94.85c-2.88.5-8.13-3.28-8.58-5.89s3.21-7.94,6.09-8.44c2.75-.48,7.99,3.18,8.46,5.91S1582.15,1393.69,1579.39,1394.17Zm10.9,106.11c-0.5-2.86,3.21-7.94,5.97-8.42s7.96,3.05,8.45,5.91-3.21,7.94-5.96,8.42S1590.79,1503.15,1590.29,1500.28Z"/>
  <path id="Shape_2_copy_3" data-name="Shape 2 copy 3" class="cls-1" d="M3708.82,1319.73c-2.8-.87-5.62-6.59-4.84-9.11s6.35-5.64,9.15-4.77,5.61,6.58,4.83,9.11S3711.61,1320.6,3708.82,1319.73Zm-38.18,100.12c0.86-2.77,6.47-5.6,9.14-4.77s5.69,6.33,4.83,9.11-6.47,5.6-9.14,4.78S3669.77,1422.63,3670.64,1419.85Zm47.36-82.59c-2.79-.87-5.65-6.46-4.83-9.12s6.35-5.64,9.14-4.77,5.79,6.5,4.97,9.15S3720.8,1338.12,3718,1337.26ZM3687.59,1411c0.87-2.78,6.48-5.6,9.15-4.77s5.69,6.33,4.83,9.11-6.48,5.6-9.14,4.77S3686.73,1413.78,3687.59,1411Zm49.71-59.59c3.76-12.12,14.26-18.13,26.84-14.23s17.29,14.78,13.57,26.77l0.25,0.08c0.31-1.01,5.82-6.64,9.89-5.37,2.79,0.86,5.83,6.79,5.01,9.44-1.29,4.17-9.05,5.36-10.1,5.17l-0.08.25c12.19,3.79,18.61,13.67,14.73,26.16s-14.96,17.65-27.15,13.86l-0.08.25c0.63,0.2,6.77,5.57,5.44,9.86-0.79,2.53-5.55,5.75-8.98,4.69-4.19-1.3-5.3-9.4-5.11-10.03l-0.25-.08c-3.77,12.12-14.18,18.3-26.76,14.39-12.71-3.94-17.29-14.77-13.53-26.89l-0.25-.08c-0.44.97-5.82,6.63-9.89,5.37-2.79-.87-5.96-6.83-5.13-9.48,1.25-4.04,9.17-5.32,10.19-5l0.07-.26c-12.2-3.79-18.57-13.79-14.69-26.29s14.83-17.68,27.03-13.89l0.07-.26c-0.5-.15-6.64-5.52-5.31-9.81,1.06-3.41,6.66-5.27,8.81-4.6,4.33,1.34,5.43,9.44,5.15,9.9Zm5.04,20.11c-1.67.87-3.33,1.74-5.23,1.14-3.05-.94-4.66-4.76-4.68-9.61a4.335,4.335,0,0,0-1.7-.81c-3.43-1.06-10.84.37-12.06,4.29-0.82,2.65.65,6.43,4.74,10.33-5.58.9-9.01,3.43-9.87,6.21-1.26,4.04,3.85,8.67,7.29,9.73a6.268,6.268,0,0,0,2.27.3c2.44-3.82,6.38-6.19,9.3-5.29,2.8,0.87,5.66,6.47,4.84,9.12-0.94,3.03-5.11,4.78-9.69,4.74a5.321,5.321,0,0,0-1.01,1.9c-1.06,3.41-.1,10.21,3.96,11.47,2.8,0.87,6.85-.5,10.83-4.38,0.97,5.42,3.28,8.76,5.95,9.59,3.81,1.18,9.32-4.02,10.38-7.43a4.119,4.119,0,0,0,.17-1.89c-4.02-2.77-6.2-6.07-5.25-9.1,0.58-1.9,2.29-2.89,3.78-3.67,1.63-.75,3.29-1.61,5.19-1.02,3.05,0.95,4.57,4.6,4.59,9.45a4.837,4.837,0,0,0,1.79.97c3.31,1.03,10.76-.54,11.97-4.45,0.78-2.52-.56-6.26-4.61-10.29,5.58-.9,8.88-3.47,9.74-6.25,1.26-4.04-3.85-8.67-7.16-9.69a6.044,6.044,0,0,0-2.27-.29c-2.44,3.81-6.38,6.18-9.43,5.23-2.67-.82-5.7-6.33-4.84-9.11,0.91-2.9,5.11-4.78,9.79-4.58a6.183,6.183,0,0,0,1.04-2.03c1.06-3.4.1-10.2-4.09-11.5-2.79-.87-6.71.54-10.75,4.55-0.92-5.55-3.23-8.89-5.9-9.72-3.81-1.18-9.32,4.02-10.38,7.43a7.645,7.645,0,0,0-.3,1.85c4.02,2.77,6.33,6.11,5.39,9.14-0.59,1.89-2.3,2.89-3.96,3.76Zm16.23,16.39c-1.1,3.53-8.54,7.31-12.1,6.21s-7.55-8.44-6.46-11.97c1.14-3.66,8.58-7.44,12.14-6.34S3759.7,1384.24,3758.57,1387.91Zm42.39-23.94c-2.79-.86-5.65-6.46-4.83-9.11s6.35-5.64,9.14-4.77,5.66,6.46,4.84,9.11S3803.76,1364.84,3800.96,1363.97Zm-30.22,72.7c0.86-2.78,6.51-5.73,9.18-4.9s5.66,6.46,4.8,9.24-6.48,5.6-9.15,4.77S3769.88,1439.45,3770.74,1436.67Zm48.01-81.98c-2.79-.87-5.74-6.63-4.96-9.15s6.48-5.61,9.27-4.74c2.67,0.83,5.66,6.46,4.84,9.11S3821.42,1355.51,3818.75,1354.69Zm-38.66,99.42c0.87-2.78,6.48-5.61,9.15-4.78s5.7,6.34,4.83,9.11-6.47,5.61-9.14,4.78S3779.23,1456.88,3780.09,1454.11Z"/>
  <path id="Shape_2_copy" data-name="Shape 2 copy" class="cls-1" d="M2475.03,4425.26c-6.04,0-15.09-9.6-15.09-15.09s9.05-15.09,15.09-15.09,15.09,9.6,15.09,15.09S2481.07,4425.26,2475.03,4425.26Zm-13.99,222.02c0-6.04,9.33-15.1,15.09-15.1s15.09,9.06,15.09,15.1-9.33,15.09-15.09,15.09S2461.04,4653.31,2461.04,4647.28Zm42.8-192.92c-6.03,0-15.09-9.33-15.09-15.1s9.06-15.09,15.09-15.09,15.37,9.33,15.37,15.09S2509.88,4454.36,2503.84,4454.36Zm-14.81,164.93c0-6.04,9.33-15.09,15.09-15.09s15.09,9.05,15.09,15.09-9.33,15.09-15.09,15.09S2489.03,4625.32,2489.03,4619.29Zm61.47-148.74c0-26.35,17.01-44.73,44.18-44.73s43.09,18.66,43.09,44.73h0.54c0-2.2,7.41-16.75,16.2-16.75,6.04,0,15.64,9.89,15.64,15.65,0,9.05-14.54,16.19-16.74,16.47v0.54c26.34,0,45.01,15.64,45.01,42.81s-18.67,44.19-45.01,44.19V4574c1.38,0,16.74,6.86,16.74,16.2,0,5.49-7.41,14.82-14.82,14.82-9.05,0-16.19-15.37-16.19-16.75h-0.55c0,26.35-16.74,45.01-43.91,45.01-27.44,0-43.08-18.66-43.08-45.01h-0.56c-0.26,2.2-7.4,16.75-16.18,16.75-6.04,0-15.92-9.89-15.92-15.65,0-8.78,14.82-16.19,17.01-16.19v-0.55c-26.35,0-45.01-15.91-45.01-43.08s18.4-44.19,44.74-44.19v-0.54c-1.1,0-16.47-6.86-16.47-16.19,0-7.41,9.88-14.55,14.55-14.55,9.33,0,16.46,15.37,16.19,16.47h0.55Zm22.23,36.77c-2.75,2.74-5.49,5.49-9.61,5.49-6.58,0-12.08-6.59-15.09-16.19a8.729,8.729,0,0,0-3.85-.55c-7.41,0-21.12,7.41-21.12,15.92,0,5.76,5.21,12.34,15.64,17.56-10.43,5.22-15.64,12.34-15.64,18.38,0,8.79,12.89,14.83,20.3,14.83a12.8,12.8,0,0,0,4.67-.83c2.47-9.06,8.79-16.19,15.09-16.19,6.04,0,15.09,9.33,15.09,15.09,0,6.59-7.13,12.63-16.19,15.37a11.518,11.518,0,0,0-.82,4.39c0,7.41,6.04,20.31,14.82,20.31,6.04,0,13.17-5.21,18.66-15.36,5.22,10.15,11.8,15.36,17.57,15.36,8.23,0,15.91-13.72,15.91-21.13a8.9,8.9,0,0,0-.82-3.84c-9.61-3.02-15.92-8.23-15.92-14.82,0-4.12,2.75-7.14,5.22-9.61,2.74-2.47,5.48-5.21,9.6-5.21,6.59,0,11.8,6.31,14.82,15.91a9.849,9.849,0,0,0,4.12.83c7.13,0,20.85-7.69,20.85-16.2,0-5.48-4.94-12.06-15.37-17.56,10.43-5.21,15.37-12.34,15.37-18.38,0-8.79-12.89-14.82-20.03-14.82a12.745,12.745,0,0,0-4.66.82c-2.47,9.06-8.79,16.19-15.37,16.19-5.76,0-15.1-9.05-15.1-15.09,0-6.31,7.14-12.63,16.47-15.1a12.918,12.918,0,0,0,.82-4.66c0-7.41-6.04-20.31-15.09-20.31-6.04,0-12.9,5.22-18.39,15.64-5.21-10.42-11.8-15.64-17.56-15.64-8.24,0-15.92,13.72-15.92,21.14a16.353,16.353,0,0,0,.55,3.83c9.6,3.03,16.19,8.23,16.19,14.83,0,4.11-2.74,7.13-5.49,9.88Zm41.98,22.5c0,7.68-12.34,19.76-20.03,19.76s-20.04-12.08-20.04-19.76c0-7.96,12.36-20.03,20.04-20.03S2614.71,4521.86,2614.71,4529.82Zm68.89-73.55c-6.04,0-15.1-9.32-15.1-15.09s9.06-15.09,15.1-15.09,15.09,9.33,15.09,15.09S2689.63,4456.27,2683.6,4456.27Zm-15.1,162.74c0-6.04,9.33-15.37,15.1-15.37s15.09,9.33,15.09,15.37-9.33,15.09-15.09,15.09S2668.5,4625.05,2668.5,4619.01Zm44.46-192.1c-6.04,0-15.37-9.6-15.37-15.09s9.33-15.1,15.37-15.1c5.76,0,15.1,9.34,15.1,15.1S2718.72,4426.91,2712.96,4426.91Zm-15.37,220.92c0-6.04,9.33-15.09,15.1-15.09s15.09,9.05,15.09,15.09-9.33,15.09-15.09,15.09S2697.59,4653.87,2697.59,4647.83Z"/>
  <path id="Shape_2_copy_4" data-name="Shape 2 copy 4" class="cls-1" d="M3393.29,4089.18c-2.78-1.44-4.68-7.99-3.38-10.5s7.75-4.75,10.53-3.31,4.67,7.99,3.37,10.5S3396.07,4090.62,3393.29,4089.18Zm-59.02,98.27c1.43-2.76,7.87-4.68,10.53-3.31s4.8,7.74,3.37,10.5-7.87,4.69-10.52,3.32S3332.84,4190.22,3334.27,4187.45Zm65.39-78.09c-2.77-1.44-4.74-7.86-3.37-10.5s7.75-4.75,10.52-3.32,4.87,7.93,3.51,10.57S3402.44,4110.8,3399.66,4109.36Zm-45.87,71.95c1.43-2.76,7.87-4.68,10.52-3.31s4.81,7.74,3.38,10.5-7.87,4.69-10.53,3.31S3352.36,4184.08,3353.79,4181.31Zm63.52-53.42c6.24-12.06,18.43-16.42,30.94-9.95s15.42,18.8,9.24,30.74l0.25,0.13c0.52-1.01,7.38-5.9,11.43-3.81,2.78,1.44,4.86,8.25,3.5,10.89-2.15,4.14-10.54,3.94-11.61,3.55l-0.13.24c12.13,6.28,17.02,17.89,10.58,30.32s-19.06,15.78-31.18,9.5l-0.13.25c0.63,0.33,6.08,7.13,3.87,11.4-1.3,2.51-6.92,5.02-10.33,3.25-4.17-2.16-3.82-10.89-3.49-11.52l-0.26-.13c-6.24,12.06-18.36,16.61-30.87,10.14-12.63-6.54-15.42-18.81-9.18-30.86l-0.25-.14c-0.65.94-7.38,5.9-11.42,3.81-2.78-1.44-4.99-8.31-3.62-10.95,2.07-4.02,10.65-3.88,11.66-3.36l0.13-.25c-12.13-6.28-16.95-18.01-10.52-30.44s18.93-15.84,31.06-9.57l0.13-.25c-0.51-.26-5.96-7.06-3.75-11.33,1.76-3.39,8-4.3,10.14-3.19,4.3,2.22,3.95,10.96,3.56,11.39Zm1.53,22.12c-1.91.6-3.83,1.2-5.72,0.22-3.03-1.57-4.01-5.89-3.12-11a4.477,4.477,0,0,0-1.64-1.17c-3.41-1.77-11.48-1.64-13.5,2.25-1.36,2.64-.52,6.89,3.05,11.77-6.04-.1-10.13,1.92-11.56,4.68-2.08,4.02,2.43,9.86,5.84,11.63a6.8,6.8,0,0,0,2.35.73c3.28-3.56,7.88-5.32,10.78-3.82,2.78,1.44,4.74,7.87,3.37,10.51-1.56,3.01-6.27,4.08-11.09,3.17a5.788,5.788,0,0,0-1.42,1.82c-1.75,3.39-2.02,10.73,2.02,12.82,2.78,1.44,7.3.75,12.22-2.58,0,5.88,1.8,9.84,4.46,11.21,3.79,1.96,10.57-2.49,12.33-5.88a4.564,4.564,0,0,0,.53-1.95c-3.71-3.67-5.38-7.56-3.82-10.58,0.97-1.88,2.95-2.61,4.68-3.15,1.84-.48,3.75-1.08,5.65-0.1,3.03,1.57,3.94,5.7,3.06,10.82a5.266,5.266,0,0,0,1.7,1.36c3.28,1.7,11.42,1.45,13.43-2.45,1.3-2.51.59-6.7-2.91-11.7,6.03,0.1,9.99-1.98,11.42-4.75,2.09-4.02-2.42-9.85-5.71-11.55a6.632,6.632,0,0,0-2.34-.74c-3.28,3.56-7.88,5.32-10.91,3.75-2.66-1.37-4.81-7.74-3.38-10.5,1.5-2.89,6.28-4.08,11.16-2.99a6.518,6.518,0,0,0,1.48-1.94c1.75-3.39,2.03-10.73-2.14-12.88-2.78-1.44-7.17-.69-12.17,2.77,0.07-6.01-1.73-9.97-4.38-11.34-3.79-1.96-10.58,2.49-12.33,5.88a8.006,8.006,0,0,0-.66,1.88c3.71,3.68,5.51,7.63,3.95,10.65-0.98,1.88-2.96,2.61-4.87,3.21Zm14,20.3c-1.82,3.52-10.36,6.1-13.9,4.27s-6.37-10.3-4.55-13.81c1.89-3.65,10.43-6.23,13.97-4.4S3434.73,4166.67,3432.84,4170.31Zm49.13-17.25c-2.78-1.44-4.74-7.86-3.37-10.5s7.74-4.75,10.52-3.31,4.74,7.86,3.38,10.5S3484.75,4154.5,3481.97,4153.06Zm-45.48,70.88c1.43-2.76,7.93-4.81,10.59-3.44s4.74,7.87,3.31,10.63-7.87,4.69-10.52,3.31S3435.06,4226.71,3436.49,4223.94Zm65.96-77.32c-2.78-1.44-4.8-8.06-3.51-10.57,1.31-2.51,7.88-4.69,10.66-3.25,2.65,1.37,4.74,7.87,3.37,10.51S3505.1,4147.99,3502.45,4146.62Zm-59.39,97.44c1.43-2.76,7.87-4.68,10.52-3.31s4.81,7.74,3.38,10.5-7.87,4.69-10.52,3.32S3441.63,4246.82,3443.06,4244.06Z"/>
  <path class="cls-1" d="M1291.01,4303.99c0-4.75-3.85-8.95-8.6-8.61a120.185,120.185,0,0,0-12.94,2.86,122.56,122.56,0,0,0,12.64-3.99c4.28-2.08,5.52-7.64,3.14-11.75s-7.81-5.83-11.76-3.16a121.516,121.516,0,0,0-9.77,8.94,124.6,124.6,0,0,0,8.95-9.76c2.67-3.95.95-9.38-3.16-11.76s-9.68-1.14-11.77,3.14a122.962,122.962,0,0,0-3.99,12.63,123.16,123.16,0,0,0,2.87-12.93c0.33-4.75-3.87-8.59-8.62-8.59s-8.95,3.84-8.62,8.59a124.966,124.966,0,0,0,2.86,12.93,121.172,121.172,0,0,0-3.98-12.63c-2.09-4.28-7.65-5.51-11.77-3.14s-5.83,7.81-3.16,11.76a122.528,122.528,0,0,0,8.95,9.76,119.548,119.548,0,0,0-9.77-8.94c-3.95-2.67-9.39-.95-11.76,3.16s-1.14,9.67,3.14,11.75a121.712,121.712,0,0,0,12.64,3.99,120.185,120.185,0,0,0-12.94-2.86c-4.76-.34-8.6,3.86-8.6,8.61s3.84,8.95,8.6,8.61a119.652,119.652,0,0,0,12.93-2.86,122.107,122.107,0,0,0-12.63,3.99c-4.28,2.08-5.52,7.64-3.14,11.75s7.81,5.83,11.76,3.16a121.516,121.516,0,0,0,9.77-8.94,122.528,122.528,0,0,0-8.95,9.76c-2.67,3.95-.95,9.38,3.16,11.76s9.68,1.14,11.77-3.14a122.962,122.962,0,0,0,3.99-12.63,123.16,123.16,0,0,0-2.87,12.93c-0.33,4.75,3.87,8.6,8.62,8.6s8.95-3.85,8.62-8.6a123.16,123.16,0,0,0-2.87-12.93,122.962,122.962,0,0,0,3.99,12.63c2.09,4.28,7.65,5.51,11.77,3.14s5.83-7.81,3.16-11.76a124.6,124.6,0,0,0-8.95-9.76,121.516,121.516,0,0,0,9.77,8.94c3.95,2.67,9.39.95,11.76-3.16s1.14-9.67-3.14-11.75a119.216,119.216,0,0,0-12.64-3.99,120.185,120.185,0,0,0,12.94,2.86C1287.16,4312.94,1291.01,4308.74,1291.01,4303.99Z"/>
  <path id="Shape_3_copy" data-name="Shape 3 copy" class="cls-1" d="M113.014,2918.99c0-4.75-3.851-8.95-8.6-8.61a120.005,120.005,0,0,0-12.941,2.86,122.337,122.337,0,0,0,12.64-3.99c4.284-2.08,5.518-7.64,3.142-11.75s-7.812-5.83-11.76-3.16a122.664,122.664,0,0,0-9.774,8.94,122.566,122.566,0,0,0,8.951-9.76c2.669-3.95.953-9.38-3.161-11.76s-9.678-1.14-11.764,3.14a122.445,122.445,0,0,0-3.988,12.63,121.59,121.59,0,0,0,2.864-12.93c0.335-4.75-3.869-8.59-8.619-8.59s-8.953,3.84-8.617,8.59a121.2,121.2,0,0,0,2.862,12.93,121.641,121.641,0,0,0-3.988-12.63c-2.084-4.28-7.649-5.51-11.764-3.14s-5.829,7.81-3.163,11.76a122.787,122.787,0,0,0,8.949,9.76,120.094,120.094,0,0,0-9.771-8.94c-3.948-2.67-9.383-.95-11.759,3.16s-1.143,9.67,3.142,11.75a122.411,122.411,0,0,0,12.636,3.99,119.908,119.908,0,0,0-12.937-2.86c-4.754-.34-8.6,3.86-8.6,8.61s3.848,8.95,8.6,8.61a119.844,119.844,0,0,0,12.935-2.86,122.272,122.272,0,0,0-12.634,3.99c-4.284,2.08-5.516,7.64-3.141,11.75s7.811,5.83,11.759,3.16a122.365,122.365,0,0,0,9.773-8.94,122.933,122.933,0,0,0-8.951,9.76c-2.666,3.95-.951,9.38,3.163,11.76s9.68,1.14,11.764-3.14a122,122,0,0,0,3.99-12.63,120.859,120.859,0,0,0-2.864,12.93c-0.336,4.75,3.866,8.6,8.617,8.6s8.954-3.85,8.619-8.6a121.506,121.506,0,0,0-2.866-12.93,122.057,122.057,0,0,0,3.99,12.63c2.087,4.28,7.65,5.51,11.764,3.14s5.83-7.81,3.161-11.76a122.566,122.566,0,0,0-8.951-9.76,122.437,122.437,0,0,0,9.775,8.94c3.948,2.67,9.384.95,11.759-3.16s1.142-9.67-3.142-11.75a119.768,119.768,0,0,0-12.639-3.99,119.957,119.957,0,0,0,12.94,2.86C109.163,2927.94,113.014,2923.74,113.014,2918.99Z"/>
  <path id="Shape_3_copy_2" data-name="Shape 3 copy 2" class="cls-1" d="M1219.01,1550.99c0-4.75-3.85-8.95-8.6-8.61a120.185,120.185,0,0,0-12.94,2.86,122.56,122.56,0,0,0,12.64-3.99c4.28-2.08,5.52-7.64,3.14-11.75s-7.81-5.83-11.76-3.16a121.516,121.516,0,0,0-9.77,8.94,124.6,124.6,0,0,0,8.95-9.76c2.67-3.95.95-9.38-3.16-11.76s-9.68-1.14-11.77,3.14a122.962,122.962,0,0,0-3.99,12.63,123.16,123.16,0,0,0,2.87-12.93c0.33-4.75-3.87-8.59-8.62-8.59s-8.95,3.84-8.62,8.59a124.966,124.966,0,0,0,2.86,12.93,121.172,121.172,0,0,0-3.98-12.63c-2.09-4.28-7.65-5.51-11.77-3.14s-5.83,7.81-3.16,11.76a122.528,122.528,0,0,0,8.95,9.76,119.548,119.548,0,0,0-9.77-8.94c-3.95-2.67-9.39-.95-11.76,3.16s-1.14,9.67,3.14,11.75a121.712,121.712,0,0,0,12.64,3.99,120.185,120.185,0,0,0-12.94-2.86c-4.76-.34-8.6,3.86-8.6,8.61s3.84,8.95,8.6,8.61a119.652,119.652,0,0,0,12.93-2.86,122.107,122.107,0,0,0-12.63,3.99c-4.28,2.08-5.52,7.64-3.14,11.75s7.81,5.83,11.76,3.16a121.516,121.516,0,0,0,9.77-8.94,122.528,122.528,0,0,0-8.95,9.76c-2.67,3.95-.95,9.38,3.16,11.76s9.68,1.14,11.77-3.14a122.962,122.962,0,0,0,3.99-12.63,123.16,123.16,0,0,0-2.87,12.93c-0.33,4.75,3.87,8.6,8.62,8.6s8.95-3.85,8.62-8.6a123.16,123.16,0,0,0-2.87-12.93,122.962,122.962,0,0,0,3.99,12.63c2.09,4.28,7.65,5.51,11.77,3.14s5.83-7.81,3.16-11.76a124.6,124.6,0,0,0-8.95-9.76,121.516,121.516,0,0,0,9.77,8.94c3.95,2.67,9.39.95,11.76-3.16s1.14-9.67-3.14-11.75a119.216,119.216,0,0,0-12.64-3.99,120.185,120.185,0,0,0,12.94,2.86C1215.16,1559.94,1219.01,1555.74,1219.01,1550.99Z"/>
  <path id="Shape_3_copy_3" data-name="Shape 3 copy 3" class="cls-1" d="M3763.01,2873.99c0-4.75-3.85-8.95-8.6-8.61a120.185,120.185,0,0,0-12.94,2.86,122.56,122.56,0,0,0,12.64-3.99c4.28-2.08,5.52-7.64,3.14-11.75s-7.81-5.83-11.76-3.16a121.516,121.516,0,0,0-9.77,8.94,124.6,124.6,0,0,0,8.95-9.76c2.67-3.95.95-9.38-3.16-11.76s-9.68-1.14-11.77,3.14a122.962,122.962,0,0,0-3.99,12.63,123.16,123.16,0,0,0,2.87-12.93c0.33-4.75-3.87-8.59-8.62-8.59s-8.95,3.84-8.62,8.59a124.966,124.966,0,0,0,2.86,12.93,121.172,121.172,0,0,0-3.98-12.63c-2.09-4.28-7.65-5.51-11.77-3.14s-5.83,7.81-3.16,11.76a122.528,122.528,0,0,0,8.95,9.76,119.548,119.548,0,0,0-9.77-8.94c-3.95-2.67-9.39-.95-11.76,3.16s-1.14,9.67,3.14,11.75a121.712,121.712,0,0,0,12.64,3.99,120.185,120.185,0,0,0-12.94-2.86c-4.76-.34-8.6,3.86-8.6,8.61s3.84,8.95,8.6,8.61a119.652,119.652,0,0,0,12.93-2.86,122.107,122.107,0,0,0-12.63,3.99c-4.28,2.08-5.52,7.64-3.14,11.75s7.81,5.83,11.76,3.16a121.516,121.516,0,0,0,9.77-8.94,122.528,122.528,0,0,0-8.95,9.76c-2.67,3.95-.95,9.38,3.16,11.76s9.68,1.14,11.77-3.14a122.962,122.962,0,0,0,3.99-12.63,123.16,123.16,0,0,0-2.87,12.93c-0.33,4.75,3.87,8.6,8.62,8.6s8.95-3.85,8.62-8.6a123.16,123.16,0,0,0-2.87-12.93,122.962,122.962,0,0,0,3.99,12.63c2.09,4.28,7.65,5.51,11.77,3.14s5.83-7.81,3.16-11.76a124.6,124.6,0,0,0-8.95-9.76,121.516,121.516,0,0,0,9.77,8.94c3.95,2.67,9.39.95,11.76-3.16s1.14-9.67-3.14-11.75a119.216,119.216,0,0,0-12.64-3.99,120.185,120.185,0,0,0,12.94,2.86C3759.16,2882.94,3763.01,2878.74,3763.01,2873.99Z"/>
  <path id="Shape_3_copy_5" data-name="Shape 3 copy 5" class="cls-1" d="M3121.01,779.99c0-4.749-3.85-8.948-8.6-8.612a121.749,121.749,0,0,0-12.94,2.863,122.022,122.022,0,0,0,12.64-3.987c4.28-2.085,5.52-7.645,3.14-11.756s-7.81-5.826-11.76-3.16a120.512,120.512,0,0,0-9.77,8.945,123.524,123.524,0,0,0,8.95-9.767c2.67-3.947.95-9.378-3.16-11.753s-9.68-1.142-11.77,3.141a122.091,122.091,0,0,0-3.99,12.624,123.217,123.217,0,0,0,2.87-12.926c0.33-4.75-3.87-8.6-8.62-8.6s-8.95,3.847-8.62,8.6a125.083,125.083,0,0,0,2.86,12.927,120.414,120.414,0,0,0-3.98-12.626c-2.09-4.282-7.65-5.513-11.77-3.139s-5.83,7.8-3.16,11.752a121.493,121.493,0,0,0,8.95,9.763,120.207,120.207,0,0,0-9.77-8.941c-3.95-2.666-9.39-.952-11.76,3.16s-1.14,9.671,3.14,11.756a120.755,120.755,0,0,0,12.64,3.986,122.013,122.013,0,0,0-12.94-2.863c-4.76-.335-8.6,3.865-8.6,8.613s3.84,8.948,8.6,8.612a121.549,121.549,0,0,0,12.93-2.861,121.3,121.3,0,0,0-12.63,3.984c-4.28,2.084-5.52,7.645-3.14,11.758s7.81,5.824,11.76,3.159a120.556,120.556,0,0,0,9.77-8.943,121.182,121.182,0,0,0-8.95,9.766c-2.67,3.945-.95,9.376,3.16,11.751s9.68,1.142,11.77-3.14a122.1,122.1,0,0,0,3.99-12.626,123.273,123.273,0,0,0-2.87,12.927c-0.33,4.751,3.87,8.6,8.62,8.6s8.95-3.847,8.62-8.6a123.329,123.329,0,0,0-2.87-12.93,122.232,122.232,0,0,0,3.99,12.629c2.09,4.282,7.65,5.513,11.77,3.14s5.83-7.806,3.16-11.751a123.065,123.065,0,0,0-8.95-9.769,120.391,120.391,0,0,0,9.77,8.946c3.95,2.665,9.39.952,11.76-3.159s1.14-9.674-3.14-11.758a121.006,121.006,0,0,0-12.64-3.986,121.923,121.923,0,0,0,12.94,2.862C3117.16,788.938,3121.01,784.738,3121.01,779.99Z"/>
  <path id="Shape_3_copy_4" data-name="Shape 3 copy 4" class="cls-1" d="M1907.01,1284.99c0-4.75-3.85-8.95-8.6-8.61a120.185,120.185,0,0,0-12.94,2.86,122.56,122.56,0,0,0,12.64-3.99c4.28-2.08,5.52-7.64,3.14-11.75s-7.81-5.83-11.76-3.16a121.516,121.516,0,0,0-9.77,8.94,124.6,124.6,0,0,0,8.95-9.76c2.67-3.95.95-9.38-3.16-11.76s-9.68-1.14-11.77,3.14a122.962,122.962,0,0,0-3.99,12.63,123.16,123.16,0,0,0,2.87-12.93c0.33-4.75-3.87-8.59-8.62-8.59s-8.95,3.84-8.62,8.59a124.966,124.966,0,0,0,2.86,12.93,121.172,121.172,0,0,0-3.98-12.63c-2.09-4.28-7.65-5.51-11.77-3.14s-5.83,7.81-3.16,11.76a122.528,122.528,0,0,0,8.95,9.76,119.548,119.548,0,0,0-9.77-8.94c-3.95-2.67-9.39-.95-11.76,3.16s-1.14,9.67,3.14,11.75a121.712,121.712,0,0,0,12.64,3.99,120.185,120.185,0,0,0-12.94-2.86c-4.76-.34-8.6,3.86-8.6,8.61s3.84,8.95,8.6,8.61a119.652,119.652,0,0,0,12.93-2.86,122.107,122.107,0,0,0-12.63,3.99c-4.28,2.08-5.52,7.64-3.14,11.75s7.81,5.83,11.76,3.16a121.516,121.516,0,0,0,9.77-8.94,122.528,122.528,0,0,0-8.95,9.76c-2.67,3.95-.95,9.38,3.16,11.76s9.68,1.14,11.77-3.14a122.962,122.962,0,0,0,3.99-12.63,123.16,123.16,0,0,0-2.87,12.93c-0.33,4.75,3.87,8.6,8.62,8.6s8.95-3.85,8.62-8.6a123.16,123.16,0,0,0-2.87-12.93,122.962,122.962,0,0,0,3.99,12.63c2.09,4.28,7.65,5.51,11.77,3.14s5.83-7.81,3.16-11.76a124.6,124.6,0,0,0-8.95-9.76,121.516,121.516,0,0,0,9.77,8.94c3.95,2.67,9.39.95,11.76-3.16s1.14-9.67-3.14-11.75a119.216,119.216,0,0,0-12.64-3.99,120.185,120.185,0,0,0,12.94,2.86C1903.16,1293.94,1907.01,1289.74,1907.01,1284.99Z"/>
  <path class="cls-2" d="M634,1802c22.984-8.51,45.464-16.46,68-24,113.747-38.08,225.578-64.55,319.68-81.74,95.6-17.47,253.59-48.6,382-73.98,121-23.92,221.33-46.94,344-107.98,78.56-39.09,205.32-128.35,320-233.95,72.19-66.47,153.14-146.13,214.32-213.96,17.06-18.91,77.39-78.924,132-117.97,54.78-39.17,105.3-66.186,152-83.982,59.88-22.819,130.48-38.143,216-40.438,72.06-1.934,149.04,7.678,230,32,59.59,17.9,122.21,45.462,192,88,45.63,27.81,96.44,66.44,148,112,48.12,42.52,95.53,91.27,144,148,73.44,85.95,131.8,169.25,172,244,36.03,67,68.56,144.83,90,240,19.97,88.63,19.63,151.03,4,210.22A388.841,388.841,0,0,1,3712,2010c-28.7,44.18-60.43,67.14-96,106-23.8,26-64.14,89.05-98,146-11.38,19.14-29.84,55.18-40,94-12.27,46.88-11.89,84.09-6,112.09,5.46,25.98,20.21,55.36,24,61.99,47.19,82.74,64.43,214.37,68,273.94,7.07,117.83-21.66,205.56-64,321.93-40.03,110.04-88.32,242.97-120,313.94-46.96,105.2-96.52,203.65-146,288.11-67.86,115.83-139.3,218.07-206,293.76-73.64,83.58-146.13,149.64-214,197.96-104.13,74.14-199.89,119.96-290,148.28-101.65,31.94-220.49,49.55-364,42-113.91-5.99-244.66-37.21-396-92-151.82-54.97-290.54-117.36-420-188-110.96-60.54-222.51-131.05-336-212.21-174.063-124.49-332.658-257.34-434-366.93-109.786-118.72-302.752-424.22-450-731.84-34.877-72.86-83.56-185.22-86-329.93-1.866-110.71,19.915-201.77,54-275.94,28.685-62.42,109.27-175.68,240-267.94C388.914,1905.04,512.218,1847.08,634,1802Z"/>
</svg>
